<svg width="130" height="92" viewBox="0 0 130 92" fill="none" xmlns="http://www.w3.org/2000/svg">
<g clip-path="url(#clip0_5_2079)">
<path d="M124.348 92H86.4751V48.6046L107.318 72.4863L124.348 92Z" fill="#83B9BB"/>
<path d="M45.4753 48.9345V79.1044L73.5612 54.9712L82.8602 46.9791H46.4519H45.4753V48.9345Z" fill="#0E5472"/>
<path d="M107.326 25.9534L123.86 11.7434H88.4283L107.326 25.9534Z" fill="#6E6F72"/>
<path d="M130 46.9791H87.6513L107.415 69.6221L130 46.9791Z" fill="#83B9BB"/>
<path d="M107.407 28.4633L86.4751 12.7225V43.8715V45.0209H88.1396H129.428L107.407 28.4633Z" fill="#6E6F72"/>
<path d="M66.5445 25.7668L45.4753 1.62546V43.8715L65.3898 26.7594L66.5445 25.7668Z" fill="#4D4262"/>
<path d="M84.5247 43.3955V12.8929L56.4388 37.0288L47.1398 45.0209H83.3484H84.5247V43.3955Z" fill="#4D4262"/>
<path d="M24.5087 67.4259L11.7134 80.2539H41.5717L24.5087 67.4259Z" fill="#F9D20C"/>
<path d="M84.5247 48.1285L64.6102 65.2406L63.4556 66.2332L84.5247 90.3745V48.1285Z" fill="#0E5472"/>
<path d="M43.5248 43.0628V0H11.3088L43.5248 43.0628Z" fill="#EA3349"/>
<path d="M24.3118 20.6443L0 45.0209H42.5483L24.3118 20.6443Z" fill="#EA3349"/>
<path d="M43.5249 79.2748V48.1285V46.9791H41.8604H0.571899L43.5249 79.2748Z" fill="#F9D20C"/>
</g>
<defs>
<clipPath id="clip0_5_2079">
<rect width="130" height="92" fill="white"/>
</clipPath>
</defs>
</svg>
